<?xml version="1.0" encoding="UTF-8" standalone="no"?>
<!-- Created with Inkscape (http://www.inkscape.org/) -->

<svg
   xmlns:dc="http://purl.org/dc/elements/1.1/"
   xmlns:cc="http://creativecommons.org/ns#"
   xmlns:rdf="http://www.w3.org/1999/02/22-rdf-syntax-ns#"
   xmlns:svg="http://www.w3.org/2000/svg"
   xmlns="http://www.w3.org/2000/svg"
   xmlns:sodipodi="http://sodipodi.sourceforge.net/DTD/sodipodi-0.dtd"
   xmlns:inkscape="http://www.inkscape.org/namespaces/inkscape"
   width="328.72"
   height="328.72"
   id="svg3006"
   version="1.1"
   inkscape:version="0.48.1 "
   sodipodi:docname="experiment.svg"
   inkscape:export-filename="C:\Users\u0094799\Documents\Icons\experiment.png"
   inkscape:export-xdpi="35.049999"
   inkscape:export-ydpi="35.049999">
  <defs
     id="defs3008" />
  <sodipodi:namedview
     id="base"
     pagecolor="#ffffff"
     bordercolor="#666666"
     borderopacity="1.0"
     inkscape:pageopacity="0.0"
     inkscape:pageshadow="2"
     inkscape:zoom="0.49497475"
     inkscape:cx="102.33201"
     inkscape:cy="108.36685"
     inkscape:document-units="px"
     inkscape:current-layer="layer1"
     showgrid="false"
     fit-margin-top="0"
     fit-margin-left="0"
     fit-margin-right="0"
     fit-margin-bottom="0"
     inkscape:window-width="1366"
     inkscape:window-height="706"
     inkscape:window-x="-8"
     inkscape:window-y="-8"
     inkscape:window-maximized="1" />
  <metadata
     id="metadata3011">
    <rdf:RDF>
      <cc:Work
         rdf:about="">
        <dc:format>image/svg+xml</dc:format>
        <dc:type
           rdf:resource="http://purl.org/dc/dcmitype/StillImage" />
        <dc:title />
      </cc:Work>
    </rdf:RDF>
  </metadata>
  <g
     inkscape:label="Layer 1"
     inkscape:groupmode="layer"
     id="layer1"
     transform="translate(-311.39323,-259.43299)">
    <path
       inkscape:connector-curvature="0"
       id="path2989"
       d="m 414.14131,586.97254 c -12.1976,-2.7014 -19.44097,-7.71027 -23.93346,-16.55023 -3.46688,-6.82186 -3.80103,-9.92822 -1.94551,-18.08629 2.27406,-9.99829 3.2912,-12.55402 26.43146,-66.41371 22.70913,-52.8562 23.353,-54.51386 26.02407,-67 2.67694,-12.51355 2.57749,-21.84729 -0.29335,-27.53004 -2.64368,-5.2331 -7.747,-8.96996 -12.25,-8.96996 -4.17724,0 -9.53685,-3.64335 -11.79785,-8.01993 -3.28585,-6.36036 -0.55535,-13.40509 6.7006,-17.28768 4.05553,-2.17007 4.5911,-2.19239 52.59725,-2.19239 48.00614,0 48.54171,0.0223 52.59724,2.19239 2.25348,1.20582 4.94302,3.45582 5.97674,5 2.34149,3.49772 2.35481,10.24114 0.0272,13.79344 -2.3146,3.53252 -7.43125,6.50589 -11.20336,6.51043 -4.41063,0.005 -9.52625,3.78425 -12.14788,8.9737 -2.73131,5.40655 -2.97669,13.97828 -0.73801,25.77968 2.27999,12.0191 4.39003,17.49241 28.23908,73.25036 22.46102,52.51281 27.13176,65.65016 25.69829,72.28134 -2.22471,10.29142 -10.26522,18.95793 -21.16899,22.81712 l -6.78037,2.39979 -57.99999,0.19408 c -45.29894,0.15157 -59.32118,-0.0985 -64.03321,-1.1421 z"
       style="fill:#292929"
       sodipodi:nodetypes="csssssssssssscssssscscc" />
    <path
       inkscape:connector-curvature="0"
       id="path2989-1"
       d="m 496.89269,338.80819 c -7.53541,-3.82648 -9.98661,-12.69891 -5.31797,-19.24902 2.48881,-3.49181 7.37484,-6.13958 11.31767,-6.13312 5.67161,0.009 12.77464,7.51356 12.77464,13.49626 0,9.05044 -10.84157,15.91415 -18.77434,11.88588 z m -48.83697,-12.92684 c -3.38699,-5.16921 2.90863,-11.46483 8.07784,-8.07784 2.79119,1.82887 3.55637,7.20339 1.34096,9.4188 -2.21541,2.21541 -7.58993,1.45023 -9.4188,-1.34096 z m 26.1188,-27.92798 c -0.55,-0.19586 -2.22925,-0.62698 -3.73166,-0.95804 -3.66486,-0.80755 -9.74943,-6.2835 -11.4173,-10.27528 -0.74307,-1.77843 -1.35104,-5.63486 -1.35104,-8.56984 0,-15.0034 17.10884,-23.87756 29.81865,-15.46661 8.67525,5.74101 10.9389,19.52243 4.51262,27.47336 -1.67383,2.07094 -4.34562,4.50917 -5.93729,5.41828 -2.8726,1.64072 -9.9763,3.06106 -11.89398,2.37813 z"
       style="fill:#01b7ef;fill-opacity:1"
       sodipodi:nodetypes="sscsssssscssssssc" />
  </g>
</svg>
